<svg width="1000" height="1000" viewBox="0 0 1000 1000" fill="none" xmlns="http://www.w3.org/2000/svg">
<rect width="1000" height="1000" rx="300" fill="white"/>
<path d="M668.949 365.222L652.045 422.892H329.886L346.79 365.222H668.949ZM517.812 754L335.852 531.273L334.858 489.511H425.341C448.873 489.511 468.925 486.197 485.497 479.568C502.069 472.774 514.747 462.665 523.53 449.241C532.313 435.652 536.705 418.583 536.705 398.034C536.705 367.707 527.59 343.927 509.361 326.692C491.132 309.291 463.125 300.591 425.341 300.591H329.886L346.79 244.909H425.341C465.777 244.909 498.92 251.621 524.773 265.044C550.791 278.302 570.014 296.531 582.443 319.732C595.038 342.767 601.335 368.867 601.335 398.034C601.335 424.384 595.535 448.661 583.935 470.868C572.5 492.909 554.105 510.641 528.75 524.064C503.561 537.487 470.251 544.199 428.821 544.199H427.33L595.369 750.023V754H517.812ZM668.949 244.909L652.045 302.58L398.494 300.591L415.398 244.909H668.949Z" fill="black"/>
</svg>
